<svg width="109" height="164" viewBox="0 0 109 164" fill="none" xmlns="http://www.w3.org/2000/svg">
<path d="M105.772 25.0456C104.703 25.0543 104.113 25.6049 104.188 26.4781C104.257 27.2616 104.885 27.7237 105.846 27.6788C106.808 27.634 107.286 27.1183 107.394 26.2912C107.198 25.5937 106.745 25.0369 105.772 25.0456Z" fill="url(#paint0_linear_11_89)"/>
<path d="M106.409 14.8176C106.18 14.9343 105.952 15.0511 105.726 15.1678C103.563 16.2791 101.682 16.7181 99.1047 15.3347C94.5468 12.8833 89.6668 14.0962 86.8884 17.9029C86.0668 19.0294 85.3652 20.2213 85.3008 21.5218C85.2012 23.4934 83.7146 24.5347 81.6686 25.1815C79.6225 25.8282 77.8796 25.1721 76.2759 24.1168C75.2346 23.4327 74.9578 22.8759 75.8453 21.8603C78.4362 18.8894 80.5145 15.6885 81.7696 12.191C82.8432 9.20376 83.451 6.17329 82.0025 3.1615C80.3812 -0.209846 76.5308 -0.638269 73.726 2.18325C72.134 3.78487 71.3636 5.67131 70.8466 7.63015C69.6618 12.1128 69.94 16.6118 70.6504 21.1167C70.7573 21.7879 71.0736 22.4638 70.5478 23.1479C68.2953 26.0838 63.3347 26.6663 60.2092 24.3923C59.2645 23.7047 59.0609 23.1642 59.8006 22.2292C62.699 18.573 64.9809 14.6845 66.0061 10.398C66.5817 7.99788 66.7736 5.57327 65.6663 3.23387C64.1285 -0.0148971 60.467 -0.484177 57.6901 2.18325C56.0087 3.79771 55.1783 5.73086 54.6378 7.74456C53.4325 12.2237 53.6771 16.7227 54.4094 21.2276C54.528 21.9572 54.8839 22.6961 54.4094 23.4351C53.2377 25.2515 48.3869 26.8134 45.8663 26.1784C44.4969 25.8282 44.2977 25.3472 45.4123 24.5102C46.8447 23.4339 48.0369 22.1848 48.7428 20.6999C49.5864 18.9267 49.5981 17.1979 47.864 15.7281C46.2281 14.353 44.1264 13.9958 41.9031 14.5001C39.4909 15.0464 38.3514 16.5406 37.9926 18.4306C37.6338 20.3205 37.9721 22.1813 38.6414 24.0094C38.8274 24.5184 39.0369 24.9923 38.4042 25.4861C37.1417 26.4691 34.6826 26.8975 33.1316 26.2776C31.333 25.5597 31.3082 24.2931 31.5513 22.9448C31.8442 21.349 32.2924 19.7719 32.2836 18.1458C32.2572 15.2507 30.8058 14.1837 27.1721 14.2713C25.7075 14.3063 24.3249 14.8958 22.8047 14.681C22.7871 13.7903 23.5999 13.4191 24.2312 12.9662C26.2963 11.4813 28.2383 9.91001 29.5638 7.93833C30.7355 6.19546 31.5059 4.37438 30.671 2.37236C29.6898 0.0201233 26.6478 -0.725819 24.1785 0.784748C22.6758 1.70463 21.8351 2.98639 21.239 4.38022C20.5029 6.11711 20.1043 7.9335 20.0571 9.76643C19.9794 12.3136 18.4797 14.1394 16.047 15.6126C15.2414 16.1005 14.4681 16.6224 13.6626 17.1103C10.7097 18.9053 7.52467 20.4436 4.16171 21.6992C3.3635 21.998 2.74983 22.3996 3.10134 23.1946C3.45284 23.9896 4.21151 23.9779 5.09027 23.8075C6.4172 23.5483 7.62697 23.0814 8.8089 22.5619C11.6414 21.3175 14.2455 19.7941 16.9624 18.1668C17.475 18.8812 17.2714 19.4042 17.1425 19.9178C16.5908 22.1319 16.0328 24.3452 15.4685 26.5578C15.2502 27.4169 15.4977 28.0999 16.7075 28.2423C17.8074 28.3719 18.5192 27.9283 18.7404 27.0504C18.8327 26.6827 18.84 26.3021 18.9059 25.9297C19.234 24.0678 19.4463 22.1848 20.3705 20.4256C21.2493 18.7621 22.544 17.4663 24.9327 17.101C28.4976 16.5558 29.8919 17.6485 28.9428 20.3871C28.398 21.9595 27.9864 23.511 28.2193 25.1523C28.5401 27.3983 30.0618 28.68 32.8518 28.931C35.33 29.1552 37.6997 28.8423 39.882 27.857C40.5425 27.5594 41.1064 27.3796 41.9456 27.6014C46.8637 28.9042 51.5285 28.5458 55.7407 25.9869C56.429 25.569 56.8626 25.5725 57.4308 26.0686C60.2941 28.5773 67.0518 29.0653 71.2142 26.336C72.6598 25.3892 73.3936 25.59 74.6795 26.357C78.3586 28.547 81.7491 28.7582 84.7472 26.9792C85.7724 26.3675 86.266 26.4329 87.2238 27.0609C91.4946 29.8626 97.4453 28.7547 99.8106 24.7927C100.632 23.4187 101.198 21.963 101.091 20.4373C101.013 19.3295 101.521 18.9582 102.848 18.8345C104.909 18.6431 106.696 17.8668 108.209 16.7333C108.9 16.2184 109.3 15.525 108.724 14.8526C108.078 14.1008 107.197 14.4207 106.409 14.8176ZM23.1049 9.12321C23.2865 7.17488 23.6204 5.37949 24.6764 3.73234C25.0733 3.1148 25.5962 2.42372 26.6771 2.77626C27.6232 3.08444 27.7931 3.80354 27.6159 4.54014C27.1311 6.55384 25.6811 8.14496 24.013 9.63101C23.8416 9.78277 23.6409 9.98122 23.3392 9.85047C22.853 9.64619 23.0932 9.29598 23.1049 9.12321ZM41.1796 22.3249C41.0199 21.7552 40.9848 21.1575 40.9116 20.6906C41.0126 19.5618 41.058 18.5392 41.761 17.6391C42.3703 16.8628 43.2432 16.5581 44.3431 16.8628C45.4035 17.157 45.7023 17.8749 45.5983 18.6699C45.401 20.2263 44.5661 21.6876 43.2227 22.828C42.1755 23.7363 41.4798 23.393 41.1796 22.3249ZM57.4191 20.0345C56.5931 19.9458 56.6326 19.2291 56.5843 18.7306C56.5008 17.8773 56.5609 17.0146 56.5609 16.1554C56.7234 12.6055 57.157 9.07652 58.8852 5.7542C59.471 4.64287 60.0686 3.13582 62.0092 3.52688C63.8033 3.8876 63.5646 5.41567 63.446 6.55618C62.9871 10.9588 61.3548 15.2328 58.6582 19.0925C58.3741 19.5046 58.0694 20.1046 57.4191 20.0345ZM74.6385 18.9069C74.4041 19.2571 74.139 19.7906 73.4668 19.6073C72.8985 19.4532 72.8399 18.9291 72.8077 18.5123C72.7521 17.8119 72.7916 17.1115 72.7916 16.4181C72.9381 12.7 73.5239 9.02748 75.2712 5.54524C75.7984 4.49462 76.3652 3.00156 78.1755 3.28406C80.0458 3.5759 79.8027 5.118 79.6796 6.25618C79.1978 10.7669 77.2909 14.9378 74.6385 18.9069ZM95.7932 24.9935C94.6215 26.1013 93.0969 26.6045 91.2954 26.2029C89.6111 25.8293 88.8188 24.7729 88.561 23.4818C88.1949 21.6537 88.6987 19.9668 90.1603 18.503C91.4272 17.2329 93.5597 16.6422 95.1634 17.1418C97.2886 17.8061 97.561 19.2816 97.6079 20.8354C97.6547 22.3891 97.0469 23.8051 95.7932 24.9935Z" fill="url(#paint1_linear_11_89)"/>
<g clip-path="url(#clip0_11_89)">
<path d="M43.5369 68.9045C40.9254 60.1051 32.7422 53.683 23.0497 53.683C11.2533 53.683 1.69116 63.1917 1.69116 74.9278C1.69116 84.6586 8.26784 92.8614 17.2412 95.3757" fill="white"/>
<path d="M16.7835 96.998C12.0059 95.6429 7.79159 92.7987 4.76034 88.8836C1.3664 84.4793 -0.306597 79.0002 0.0516247 73.4624C0.409847 67.9245 2.77498 62.7038 6.70838 58.7685C10.6418 54.8331 15.8765 52.4501 21.4418 52.0615C27.0071 51.6728 32.5253 53.3049 36.9729 56.655C40.8866 59.6187 43.7534 63.7416 45.1603 68.4298L41.9151 69.3824C40.7137 65.3822 38.267 61.8645 34.9273 59.3359C31.1325 56.4785 26.4248 55.0866 21.677 55.4185C16.9292 55.7504 12.4634 57.7835 9.10773 61.1408C5.75206 64.4981 3.73416 68.9519 3.42819 73.6763C3.12222 78.4007 4.54894 83.0751 7.4438 86.833C10.0298 90.1738 13.6252 92.6012 17.7014 93.7583L16.7835 96.998Z" fill="black"/>
<path d="M35.3528 74.189C35.2094 71.8272 34.3819 69.5572 32.9702 67.6528C31.5585 65.7485 29.6229 64.2911 27.397 63.4566C25.1712 62.6222 22.7501 62.4462 20.4259 62.95C18.1017 63.4538 15.9737 64.6157 14.2987 66.2958C12.6237 67.9758 11.4732 70.102 10.9862 72.418C10.4991 74.7339 10.6961 77.1406 11.5536 79.3476C12.4111 81.5546 13.8923 83.4676 15.8185 84.8559C17.7448 86.2441 20.0338 87.0483 22.4093 87.1713" fill="#FFEC00"/>
<path d="M22.4067 88.8543H22.3221C18.7357 88.6696 15.3576 87.1217 12.8858 84.5304C10.414 81.9391 9.03731 78.5024 9.04017 74.9303C9.04017 67.2426 15.3284 60.9879 23.0573 60.9879C30.4639 60.9879 36.6091 66.7436 37.049 74.0914C37.0757 74.5369 36.9234 74.9748 36.6255 75.3086C36.3276 75.6425 35.9086 75.845 35.4607 75.8715C35.0127 75.8981 34.5725 75.7465 34.2369 75.4503C33.9013 75.154 33.6977 74.7372 33.671 74.2916C33.3377 68.7194 28.6797 64.3538 23.0573 64.3538C20.2847 64.3526 17.6212 65.4286 15.6347 67.3525C13.6482 69.2764 12.4958 71.896 12.4231 74.653C12.3504 77.4099 13.3631 80.086 15.2455 82.1108C17.1279 84.1357 19.7309 85.3492 22.4998 85.4926C22.9485 85.5037 23.3744 85.6917 23.6838 86.0152C23.9932 86.3387 24.1607 86.7712 24.1494 87.2176C24.1382 87.6639 23.9492 88.0876 23.624 88.3953C23.2987 88.703 22.8639 88.8696 22.4152 88.8585L22.4067 88.8543Z" fill="black"/>
<path d="M65.0942 70.3973C68.0934 71.2732 70.9694 72.5223 73.6539 74.1149C73.811 71.7626 74.6466 69.5051 76.0606 67.6132C77.4747 65.7212 79.4072 64.2748 81.6266 63.4475C83.846 62.6201 86.2582 62.4469 88.5741 62.9484C90.89 63.4499 93.0113 64.6051 94.684 66.2753C96.3567 67.9456 97.5098 70.0601 98.005 72.3656C98.5003 74.6711 98.3167 77.0697 97.4763 79.2741C96.636 81.4784 95.1744 83.395 93.2668 84.7942C91.3592 86.1934 89.0865 87.0158 86.721 87.1629C88.3033 89.8266 89.5431 92.6774 90.4112 95.6484" fill="white"/>
<path d="M90.4044 97.3322C90.038 97.332 89.6816 97.2135 89.3886 96.9946C89.0957 96.7756 88.8822 96.468 88.7801 96.1179C87.9518 93.2824 86.7686 90.5616 85.2583 88.0195C85.1109 87.7714 85.03 87.4898 85.0233 87.2017C85.0167 86.9136 85.0845 86.6286 85.2204 86.374C85.3563 86.1195 85.5555 85.9039 85.7992 85.7479C86.0428 85.5919 86.3227 85.5008 86.6119 85.4833C92.2005 85.1408 96.5793 80.5043 96.5793 74.9278C96.5759 72.1237 95.4546 69.4355 93.4612 67.4527C91.4678 65.47 88.7652 64.3546 85.9461 64.3512C80.3626 64.3512 75.7012 68.6882 75.3366 74.2251C75.3177 74.5126 75.2248 74.7905 75.067 75.032C74.9092 75.2736 74.6917 75.4709 74.4353 75.6049C74.1789 75.7389 73.8922 75.8052 73.6027 75.7974C73.3132 75.7897 73.0305 75.7081 72.7817 75.5606C70.2205 74.0409 67.4767 72.8486 64.6154 72.0121C64.1893 71.8827 63.8316 71.5913 63.6201 71.2013C63.4086 70.8112 63.3604 70.3539 63.4858 69.9286C63.6112 69.5033 63.9002 69.1445 64.2901 68.9299C64.6799 68.7153 65.1391 68.6623 65.568 68.7825C67.9129 69.4675 70.1874 70.3713 72.3613 71.4819C73.1325 68.4803 74.8862 65.8194 77.3459 63.9189C79.8057 62.0183 82.8314 60.9862 85.9461 60.9853C93.675 60.9853 99.9632 67.24 99.9632 74.9278C99.9632 81.4072 95.4727 86.9298 89.3571 88.4537C90.4581 90.6073 91.3534 92.8588 92.0313 95.1788C92.1047 95.4297 92.1184 95.6942 92.0712 95.9513C92.0241 96.2083 91.9174 96.451 91.7596 96.6599C91.6018 96.8689 91.3973 97.0384 91.1622 97.1551C90.9271 97.2718 90.668 97.3324 90.4053 97.3322H90.4044Z" fill="black"/>
<path d="M91.8857 95.3412C100.793 92.7823 107.308 84.6124 107.308 74.9278C107.308 63.1942 97.7484 53.683 85.9486 53.683C76.2562 53.683 68.073 60.1051 65.4614 68.9045" fill="white"/>
<path d="M92.3553 96.9577L91.4162 93.7239C95.4643 92.547 99.0292 90.1162 101.593 86.785C104.471 83.0228 105.883 78.3509 105.567 73.6333C105.25 68.9158 103.226 64.4719 99.8704 61.1237C96.5143 57.7754 92.0528 55.7494 87.311 55.4203C82.5692 55.0912 77.8679 56.4813 74.0769 59.3335C70.7367 61.8616 68.2898 65.3795 67.0891 69.3799L63.8405 68.4282C65.2477 63.7401 68.1145 59.6173 72.028 56.6534C76.4709 53.3085 81.9816 51.6775 87.5403 52.0624C93.0989 52.4472 98.3293 54.8218 102.264 58.7467C106.198 62.6716 108.57 67.8811 108.94 73.4113C109.31 78.9415 107.655 84.4179 104.279 88.8273C101.275 92.7305 97.0983 95.5788 92.3553 96.9577Z" fill="black"/>
<path d="M86.7185 87.1629C89.0839 87.0161 91.3566 86.194 93.2643 84.7952C95.1719 83.3963 96.6336 81.48 97.4742 79.2758C98.3148 77.0717 98.4986 74.6732 98.0036 72.3678C97.5086 70.0624 96.3559 67.9478 94.6834 66.2775C93.011 64.6072 90.8898 63.4519 88.5741 62.9502C86.2583 62.4485 83.8463 62.6215 81.627 63.4487C79.4076 64.2758 77.4751 65.7219 76.061 67.6137C74.6469 69.5055 73.8111 71.7627 73.6539 74.1149" fill="#FFEC00"/>
<path d="M86.7168 88.8458C86.268 88.8593 85.8323 88.695 85.5054 88.3889C85.1785 88.0828 84.9872 87.6601 84.9736 87.2138C84.96 86.7674 85.1253 86.334 85.433 86.0088C85.7407 85.6837 86.1656 85.4934 86.6144 85.4799C92.203 85.1374 96.5818 80.5009 96.5818 74.9244C96.5784 72.1204 95.4571 69.4321 93.4637 67.4493C91.4703 65.4666 88.7677 64.3512 85.9486 64.3478C80.3651 64.3478 75.7037 68.6848 75.3391 74.2218C75.3276 74.4445 75.2717 74.6628 75.1747 74.8638C75.0777 75.0649 74.9414 75.2448 74.7739 75.393C74.6064 75.5413 74.4109 75.6549 74.1988 75.7273C73.9867 75.7997 73.7623 75.8295 73.5385 75.8149C73.3148 75.8003 73.0962 75.7416 72.8954 75.6422C72.6947 75.5428 72.5158 75.4047 72.3692 75.236C72.2226 75.0672 72.1112 74.8712 72.0414 74.6592C71.9716 74.4473 71.9449 74.2236 71.9628 74.0013C72.1983 70.4712 73.7741 67.1621 76.3711 64.7446C78.968 62.3272 82.3918 60.9821 85.9486 60.9819C93.6775 60.9819 99.9657 67.2367 99.9657 74.9244C99.9657 82.2756 94.1927 88.3881 86.8225 88.8391C86.787 88.845 86.7514 88.8458 86.7168 88.8458Z" fill="black"/>
<path d="M54.5642 143.145C75.1763 143.145 91.8857 126.524 91.8857 106.022C91.8857 85.5198 75.1763 68.8994 54.5642 68.8994C33.9522 68.8994 17.2428 85.5198 17.2428 106.022C17.2428 126.524 33.9522 143.145 54.5642 143.145Z" fill="white"/>
<path d="M54.5642 144.828C44.9217 144.816 35.6273 141.242 28.4839 134.8C21.3405 128.357 16.8573 119.506 15.9041 109.961C14.9509 100.417 17.5956 90.861 23.3251 83.1466C29.0546 75.4322 37.4605 70.1094 46.9123 68.2109C56.364 66.3124 66.1878 67.9735 74.478 72.8719C82.7682 77.7702 88.9337 85.5568 91.7787 94.721C94.6237 103.885 93.9452 113.774 89.875 122.469C85.8047 131.163 78.6328 138.045 69.7505 141.777C64.9463 143.8 59.7811 144.838 54.5642 144.828ZM54.5642 70.5815C45.7609 70.5934 37.2758 73.8571 30.7548 79.7396C24.2337 85.6221 20.1417 93.704 19.2723 102.418C18.403 111.131 20.8183 119.856 26.0499 126.898C31.2814 133.941 38.9562 138.799 47.5855 140.532C56.2148 142.265 65.1835 140.747 72.7518 136.275C80.3202 131.802 85.9487 124.693 88.5456 116.326C91.1425 107.959 90.5226 98.9315 86.8062 90.9936C83.0899 83.0556 76.5419 76.7736 68.4325 73.366C64.0451 71.5194 59.3282 70.5724 54.5642 70.5815Z" fill="black"/>
<path d="M43.926 70.4183V70.4303H43.9323L43.926 70.4183Z" fill="white"/>
<path d="M43.9286 72.1113C43.6495 72.1118 43.3746 72.0438 43.1282 71.9133C42.8819 71.7828 42.6717 71.5938 42.5164 71.3632C42.3611 71.1325 42.2654 70.8673 42.2377 70.591C42.2101 70.3148 42.2515 70.036 42.3582 69.7795C42.4648 69.5229 42.6335 69.2965 42.8492 69.1203C43.0648 68.9441 43.3209 68.8236 43.5947 68.7694C43.8684 68.7153 44.1513 68.7291 44.4184 68.8098C44.6855 68.8904 44.9284 69.0354 45.1257 69.2318L45.1333 69.2394C45.37 69.4753 45.5311 69.7758 45.5959 70.1029C45.6607 70.4299 45.6264 70.7688 45.4974 71.0764C45.3683 71.3841 45.1503 71.6467 44.871 71.8309C44.5917 72.0152 44.2637 72.1128 43.9286 72.1113Z" fill="black"/>
<path d="M54.5643 68.8986C54.3604 68.8986 54.1565 68.8986 53.9535 68.9045H55.1743C54.9712 68.9011 54.7682 68.8986 54.5643 68.8986Z" fill="white"/>
<path d="M55.1742 70.5874H53.9535C53.7313 70.5891 53.5109 70.5473 53.305 70.4643C53.0991 70.3813 52.9116 70.2588 52.7532 70.1037C52.4335 69.7905 52.2519 69.3639 52.2484 68.9175C52.2449 68.4712 52.4199 68.0417 52.7347 67.7237C53.0495 67.4056 53.4785 67.225 53.9273 67.2215C54.3502 67.2148 54.7732 67.2148 55.2013 67.2215C55.6501 67.2251 56.079 67.4058 56.3937 67.724C56.7085 68.0421 56.8833 68.4716 56.8797 68.9179C56.8762 69.3643 56.6945 69.7909 56.3746 70.104C56.0548 70.4171 55.623 70.591 55.1742 70.5874Z" fill="black"/>
<path d="M18.8341 95.7578L29.403 106.211L18.8341 95.7578Z" fill="white"/>
<path d="M55.1743 68.9045C58.5281 68.9553 61.8598 69.456 65.079 70.3931C65.1918 69.8882 65.3193 69.392 65.4614 68.9045" fill="white"/>
<path d="M65.079 72.076C64.9178 72.0759 64.7574 72.053 64.6027 72.0079C61.5293 71.1142 58.3489 70.6362 55.1472 70.5866C54.6984 70.583 54.2695 70.4023 53.9547 70.0842C53.64 69.766 53.4652 69.3365 53.4687 68.8902C53.4723 68.4438 53.654 68.0172 53.9739 67.7041C54.2937 67.391 54.7255 67.2171 55.1743 67.2207H55.2013C58.124 67.2663 61.0323 67.6374 63.8718 68.3272C64.0122 67.9032 64.3161 67.552 64.7168 67.3509C65.1175 67.1497 65.582 67.1152 66.0083 67.2548C66.4346 67.3944 66.7877 67.6967 66.9899 68.0952C67.1921 68.4938 67.2269 68.9559 67.0866 69.3799C66.9529 69.8293 66.8328 70.2896 66.7338 70.7498C66.6517 71.1253 66.443 71.4614 66.1423 71.7025C65.8415 71.9436 65.467 72.0751 65.0807 72.0752L65.079 72.076Z" fill="black"/>
<path d="M43.5369 68.9045C43.6841 69.4021 43.8135 69.907 43.9252 70.4191L43.9328 70.4276C47.1875 69.469 50.5586 68.9569 53.9526 68.9053" fill="white"/>
<path d="M43.9345 72.1097C43.7115 72.1096 43.4907 72.0657 43.2849 71.9805C43.079 71.8953 42.8921 71.7705 42.7349 71.6132L42.7264 71.6056C42.4984 71.3772 42.3408 71.0888 42.2721 70.7742C42.1706 70.3064 42.0505 69.8377 41.9151 69.3807C41.7916 68.9594 41.8385 68.5067 42.0457 68.1192C42.2529 67.7317 42.6042 67.4401 43.0245 67.3065C43.4448 67.1729 43.901 67.208 44.2957 67.4041C44.6904 67.6003 44.9925 67.9421 45.1375 68.3567C48.0145 67.6484 50.963 67.2676 53.9264 67.2215C54.3751 67.2143 54.8084 67.3846 55.1309 67.6951C55.4533 68.0056 55.6386 68.4308 55.6459 68.8771C55.6532 69.3235 55.4819 69.7544 55.1697 70.0752C54.8576 70.3959 54.4301 70.5802 53.9814 70.5874C50.7411 70.6369 47.5226 71.1256 44.415 72.0398C44.2591 72.0862 44.0972 72.1097 43.9345 72.1097Z" fill="black"/>
<path d="M54.5 80.9965L65.0748 70.4191C65.0763 70.4103 65.0783 70.4016 65.0807 70.3931C61.8615 69.456 58.5298 68.9553 55.176 68.9045H53.9552C50.5612 68.956 47.1901 69.4682 43.9354 70.4267L54.5 80.9965Z" fill="#FFEC00"/>
<path d="M54.5 82.6795C54.2769 82.6795 54.056 82.6357 53.85 82.5505C53.6439 82.4653 53.4569 82.3404 53.2996 82.183L42.7341 71.6132C42.5276 71.4066 42.3785 71.1503 42.3014 70.8693C42.2243 70.5883 42.2219 70.2921 42.2944 70.0099C42.3669 69.7277 42.5117 69.469 42.7149 69.2591C42.918 69.0493 43.1724 68.8955 43.4532 68.8127C46.8554 67.8116 50.3789 67.2763 53.9265 67.2215H55.2014C58.707 67.2756 62.1894 67.7992 65.5545 68.7782C65.9635 68.8975 66.3122 69.166 66.5309 69.53C66.7495 69.8939 66.822 70.3266 66.7338 70.7414L66.7287 70.7658C66.6624 71.0845 66.5039 71.377 66.2727 71.6073L55.6979 82.1847C55.5408 82.3415 55.3541 82.4659 55.1485 82.5508C54.943 82.6357 54.7226 82.6794 54.5 82.6795ZM47.2246 71.3338L54.5 78.6101L61.7941 71.3128C59.6106 70.8657 57.3898 70.6228 55.1607 70.5874H53.9679C51.7023 70.6237 49.4453 70.8737 47.2271 71.3338H47.2246Z" fill="black"/>
<path d="M65.0796 70.393C65.0769 70.4023 65.0747 70.4118 65.0731 70.4213L65.0961 70.3976L65.0796 70.393Z" fill="white"/>
<path d="M65.0723 72.1021C64.8208 72.1019 64.5724 72.0459 64.3454 71.9383C64.1184 71.8306 63.9183 71.6739 63.7598 71.4797C63.6013 71.2854 63.4884 71.0585 63.4292 70.8153C63.3699 70.5722 63.366 70.319 63.4175 70.0741L63.4234 70.0447C63.4715 69.8188 63.5658 69.6052 63.7004 69.4171C63.835 69.229 64.0071 69.0705 64.2059 68.9513C64.4048 68.8322 64.6262 68.7551 64.8563 68.7248C65.0864 68.6944 65.3203 68.7115 65.5435 68.7749L65.5832 68.7866C65.8627 68.8706 66.1156 69.025 66.3173 69.2349C66.519 69.4447 66.6627 69.703 66.7344 69.9844C66.8061 70.2659 66.8033 70.561 66.7264 70.8411C66.6496 71.1212 66.5011 71.3767 66.2956 71.5829L66.2744 71.6039C66.1171 71.7618 65.9298 71.8871 65.7235 71.9727C65.5171 72.0582 65.2958 72.1021 65.0723 72.1021ZM64.8041 71.3548L64.6061 72.0087H64.6163L64.8041 71.3548Z" fill="black"/>
<path d="M91.8857 95.3412C91.4057 95.4792 90.9187 95.6004 90.4247 95.7047C91.3967 99.0585 91.8885 102.532 91.8857 106.022" fill="white"/>
<path d="M91.8858 107.705C91.437 107.705 91.0067 107.528 90.6894 107.212C90.3721 106.897 90.1938 106.468 90.1938 106.022C90.1955 102.69 89.7253 99.3737 88.7971 96.1717C88.7326 95.95 88.7146 95.7174 88.7443 95.4885C88.7741 95.2595 88.8508 95.0391 88.9699 94.8409C89.0889 94.6427 89.2476 94.471 89.4362 94.3365C89.6248 94.2019 89.8392 94.1074 90.066 94.0588C90.5212 93.962 90.9738 93.8493 91.4103 93.7222C91.8301 93.5989 92.2815 93.6422 92.6698 93.843C93.0581 94.0438 93.3531 94.3865 93.4929 94.799C93.6326 95.2116 93.6061 95.6619 93.4191 96.0555C93.2321 96.4491 92.899 96.7553 92.4898 96.9097C93.2099 99.8936 93.5731 102.952 93.5718 106.02C93.5723 106.466 93.395 106.894 93.0789 107.209C92.7629 107.525 92.3338 107.703 91.8858 107.705Z" fill="black"/>
<path d="M91.8857 107.894C91.6627 107.894 91.442 107.85 91.2361 107.765C91.0302 107.679 90.8433 107.555 90.686 107.397C90.5288 107.24 90.4043 107.053 90.3199 106.848C90.2354 106.643 90.1925 106.423 90.1938 106.201V106.022C90.1938 105.576 90.372 105.148 90.6893 104.832C91.0066 104.516 91.437 104.339 91.8857 104.339C92.3345 104.339 92.7648 104.516 93.0821 104.832C93.3994 105.148 93.5777 105.576 93.5777 106.022V106.211C93.5777 106.657 93.3994 107.085 93.0821 107.401C92.7648 107.716 92.3345 107.894 91.8857 107.894Z" fill="black"/>
<path d="M90.4247 95.7047L90.3308 95.7249L79.7289 106.211L90.3198 116.687C91.3414 113.287 91.8676 109.759 91.8823 106.211C91.8823 106.147 91.8823 106.084 91.8823 106.022C91.8863 102.532 91.3956 99.0586 90.4247 95.7047Z" fill="#FFEC00"/>
<path d="M90.3198 118.37C89.8728 118.37 89.4439 118.194 89.127 117.88L78.5336 107.404C78.3754 107.247 78.2498 107.061 78.1641 106.857C78.0785 106.652 78.0344 106.432 78.0344 106.21C78.0344 105.988 78.0785 105.769 78.1641 105.564C78.2498 105.359 78.3754 105.173 78.5336 105.017L89.1354 94.5317C89.3673 94.3021 89.6612 94.1442 89.9814 94.0773L90.066 94.0588C90.4845 93.9699 90.9213 94.042 91.2884 94.2606C91.6556 94.4792 91.9258 94.828 92.0448 95.2369C93.0588 98.7428 93.5714 102.373 93.5676 106.021C93.5676 106.068 93.5676 106.115 93.5676 106.161V106.221C93.5514 109.929 93.0012 113.616 91.934 117.169C91.8518 117.447 91.699 117.699 91.4903 117.901C91.2817 118.102 91.0242 118.247 90.7428 118.321C90.6045 118.355 90.4623 118.372 90.3198 118.37ZM82.1256 106.211L89.4138 113.418C89.919 111.045 90.1792 108.627 90.1904 106.202V106.133C90.1904 106.096 90.1904 106.059 90.1904 106.022C90.1915 103.643 89.9529 101.27 89.4781 98.9385L82.1256 106.211Z" fill="black"/>
<path d="M90.425 95.7049L90.4088 95.6484L90.3308 95.7251L90.425 95.7049Z" fill="white"/>
<path d="M90.3308 97.4079C89.9957 97.4078 89.6682 97.3088 89.3898 97.1233C89.1113 96.9379 88.8945 96.6743 88.7669 96.3662C88.6392 96.058 88.6064 95.7191 88.6726 95.3923C88.7388 95.0656 88.9011 94.7658 89.1389 94.5309L89.2158 94.4543C89.4243 94.2482 89.6831 94.0996 89.9668 94.0233C90.2506 93.9469 90.5494 93.9454 90.8339 94.0188C91.1184 94.0923 91.3787 94.2382 91.5893 94.4422C91.7998 94.6462 91.9533 94.9012 92.0347 95.1822L92.0507 95.2386C92.1151 95.4603 92.1329 95.6927 92.1032 95.9216C92.0734 96.1504 91.9966 96.3708 91.8776 96.5688C91.7586 96.7669 91.5999 96.9385 91.4114 97.073C91.2228 97.2075 91.0085 97.302 90.7818 97.3507L90.753 97.3574L90.6794 97.3726C90.5648 97.3966 90.448 97.4085 90.3308 97.4079Z" fill="black"/>
<path d="M17.2421 106.022V106.211C17.244 106.147 17.2421 106.084 17.2421 106.022Z" fill="white"/>
<path d="M17.2437 107.894C16.795 107.894 16.3646 107.716 16.0473 107.401C15.73 107.085 15.5518 106.657 15.5518 106.211V106.022C15.5518 105.576 15.73 105.148 16.0473 104.832C16.3646 104.516 16.795 104.339 17.2437 104.339C17.6925 104.339 18.1228 104.516 18.4401 104.832C18.7574 105.148 18.9357 105.576 18.9357 106.022V106.204C18.9369 106.426 18.8941 106.645 18.8096 106.851C18.7251 107.056 18.6007 107.243 18.4434 107.4C18.2862 107.557 18.0993 107.682 17.8934 107.767C17.6875 107.852 17.4667 107.896 17.2437 107.896V107.894Z" fill="black"/>
<path d="M18.8341 95.7578L18.6988 95.7308C17.732 99.0766 17.2427 102.541 17.2454 106.022C17.2454 106.084 17.2454 106.147 17.2454 106.211C17.2597 109.759 17.7859 113.287 18.8079 116.687L29.4013 106.211L18.8341 95.7578Z" fill="#FFEC00"/>
<path d="M18.8063 118.37C18.6656 118.37 18.5255 118.353 18.3892 118.318C18.106 118.246 17.8462 118.103 17.6353 117.902C17.4243 117.701 17.2693 117.448 17.1854 117.17C16.1178 113.616 15.5677 109.928 15.5518 106.219V106.022C15.5491 102.383 16.06 98.7622 17.0695 95.2646C17.1883 94.8575 17.4573 94.5101 17.8226 94.2917C18.1879 94.0733 18.6225 94 19.0398 94.0866L19.1624 94.111C19.4884 94.1758 19.7879 94.3348 20.0236 94.5679L30.5934 105.017C30.7516 105.173 30.8771 105.359 30.9628 105.564C31.0485 105.769 31.0926 105.988 31.0926 106.21C31.0926 106.432 31.0485 106.652 30.9628 106.857C30.8771 107.061 30.7516 107.247 30.5934 107.404L20 117.88C19.6828 118.194 19.2536 118.37 18.8063 118.37ZM19.6463 98.9385C19.1722 101.27 18.9339 103.643 18.9349 106.022V106.204C18.9457 108.629 19.2056 111.047 19.7106 113.42L26.9988 106.213L19.6463 98.9385Z" fill="black"/>
<path d="M17.2421 95.3782C17.7203 95.5123 18.2048 95.6298 18.6955 95.7308L18.72 95.6467" fill="white"/>
<path d="M18.6971 97.4138C18.5815 97.4139 18.4661 97.4024 18.3528 97.3793C17.8266 97.2707 17.2979 97.142 16.7835 96.9981C16.3533 96.8756 15.9894 96.5885 15.7714 96.1997C15.5535 95.8109 15.4993 95.3521 15.6207 94.9236C15.7421 94.4952 16.0292 94.132 16.4191 93.9136C16.8091 93.6952 17.2702 93.6394 17.7014 93.7584C17.9789 93.8358 18.2606 93.9082 18.5432 93.9747C18.819 93.9459 19.0977 93.9849 19.3547 94.0884C19.6118 94.192 19.8393 94.3567 20.0173 94.5683C20.1953 94.7798 20.3183 95.0316 20.3755 95.3016C20.4326 95.5715 20.4222 95.8512 20.3451 96.1162L20.3214 96.2004C20.2192 96.5503 20.0056 96.8577 19.7127 97.0765C19.4198 97.2953 19.0635 97.4137 18.6971 97.4138Z" fill="black"/>
<path d="M18.6954 95.7308L18.8308 95.7578L18.72 95.6484L18.6954 95.7308Z" fill="white"/>
<path d="M18.8341 97.4407C18.7227 97.441 18.6116 97.43 18.5025 97.4079L18.4703 97.402L18.3544 97.3784C18.126 97.3317 17.9098 97.2385 17.7193 97.1047C17.5288 96.9708 17.3682 96.7993 17.2475 96.6008C17.1269 96.4023 17.0488 96.1812 17.0181 95.9512C16.9874 95.7213 17.0049 95.4875 17.0694 95.2646L17.0948 95.1805C17.1765 94.8999 17.3302 94.6453 17.5408 94.4417C17.7515 94.2381 18.0117 94.0926 18.296 94.0194C18.5804 93.9462 18.8789 93.9479 19.1624 94.0243C19.4459 94.1007 19.7045 94.2492 19.9127 94.4551L20.0236 94.5645C20.2611 94.7995 20.4231 95.0993 20.4891 95.426C20.5552 95.7527 20.5222 96.0915 20.3945 96.3995C20.2667 96.7076 20.0499 96.9709 19.7715 97.1563C19.4932 97.3416 19.1657 97.4406 18.8307 97.4407H18.8341Z" fill="black"/>
<path d="M43.0899 94.8595C44.4097 93.5467 44.4097 91.4182 43.0899 90.1053C41.77 88.7925 39.6301 88.7925 38.3102 90.1053C36.9904 91.4182 36.9904 93.5467 38.3102 94.8595C39.6301 96.1723 41.77 96.1723 43.0899 94.8595Z" fill="black"/>
<path d="M69.0738 95.7615C70.8904 95.335 72.0155 93.5244 71.5868 91.7174C71.158 89.9105 69.3377 88.7913 67.5211 89.2178C65.7044 89.6443 64.5793 91.4549 65.0081 93.2619C65.4369 95.0688 67.2571 96.1879 69.0738 95.7615Z" fill="black"/>
<path d="M54.5643 97.8143C52.3258 97.8143 50.1789 98.6988 48.596 100.273C47.0132 101.848 46.1239 103.983 46.1239 106.21C46.1239 108.436 47.0132 110.572 48.596 112.146C50.1789 113.721 52.3258 114.605 54.5643 114.605C56.8028 114.605 58.9497 113.721 60.5325 112.146C62.1154 110.572 63.0047 108.436 63.0047 106.21C63.0047 103.983 62.1154 101.848 60.5325 100.273C58.9497 98.6988 56.8028 97.8143 54.5643 97.8143Z" fill="#FF2900"/>
<path d="M54.5643 101.18C55.5643 101.18 56.5419 101.475 57.3734 102.028C58.2049 102.58 58.853 103.366 59.2358 104.285C59.6185 105.204 59.7187 106.215 59.5236 107.191C59.3286 108.166 58.8471 109.062 58.14 109.766C57.433 110.469 56.5321 110.948 55.5513 111.143C54.5705 111.337 53.5538 111.237 52.6299 110.857C51.7059 110.476 50.9161 109.832 50.3604 109.005C49.8047 108.178 49.508 107.205 49.5078 106.211V106.197C49.5125 104.866 50.0472 103.591 50.9948 102.65C51.9424 101.71 53.2258 101.182 54.5643 101.18ZM54.5643 97.8143C52.3258 97.8143 50.1789 98.6988 48.596 100.273C47.0132 101.848 46.1239 103.983 46.1239 106.21C46.1239 108.436 47.0132 110.572 48.596 112.146C50.1789 113.721 52.3258 114.605 54.5643 114.605C56.8028 114.605 58.9497 113.721 60.5325 112.146C62.1154 110.572 63.0047 108.436 63.0047 106.21C63.0047 103.983 62.1154 101.848 60.5325 100.273C58.9497 98.6988 56.8028 97.8143 54.5643 97.8143Z" fill="black"/>
<path d="M54.5643 120.947C55.3385 120.947 55.9661 120.322 55.9661 119.552C55.9661 118.782 55.3385 118.158 54.5643 118.158C53.7901 118.158 53.1625 118.782 53.1625 119.552C53.1625 120.322 53.7901 120.947 54.5643 120.947Z" fill="white"/>
<path d="M50.2202 119.963C50.2202 123.245 52.1659 125.898 54.5634 125.898C56.961 125.898 58.9059 123.24 58.9059 119.963" fill="white"/>
<path d="M54.5643 127.577C52.8723 127.577 51.2557 126.691 50.1254 125.146C49.0959 123.74 48.5291 121.897 48.5291 119.96C48.5291 119.513 48.7073 119.085 49.0246 118.769C49.3419 118.454 49.7723 118.277 50.221 118.277C50.6698 118.277 51.1001 118.454 51.4174 118.769C51.7347 119.085 51.913 119.513 51.913 119.96C51.913 121.174 52.259 122.343 52.8613 123.166C53.1473 123.557 53.7488 124.212 54.5643 124.212C55.3798 124.212 55.9813 123.557 56.2673 123.166C56.8696 122.343 57.2148 121.174 57.2148 119.96C57.2148 119.513 57.393 119.085 57.7103 118.769C58.0276 118.454 58.458 118.277 58.9067 118.277C59.3555 118.277 59.7858 118.454 60.1031 118.769C60.4205 119.085 60.5987 119.513 60.5987 119.96C60.5987 121.895 60.0319 123.74 59.0032 125.146C57.8729 126.695 56.2546 127.577 54.5643 127.577Z" fill="black"/>
<path d="M62.6671 115.078C62.5583 115.071 62.4492 115.086 62.3462 115.122C62.2432 115.157 62.1484 115.213 62.0672 115.285C61.9859 115.358 61.92 115.445 61.8731 115.543C61.8262 115.641 61.7993 115.747 61.7941 115.856C61.7433 116.635 61.4447 117.268 60.8567 117.863C60.185 118.496 59.4591 118.805 58.5319 118.809C57.5667 118.809 56.8544 118.496 56.2173 117.869C55.7554 117.434 55.4393 116.868 55.3121 116.249C55.296 116.178 55.271 116.11 55.2377 116.046V116.038C55.2284 116.02 55.2174 116.001 55.2064 115.984C55.2024 115.978 55.1987 115.972 55.1954 115.966L55.1641 115.923L55.1455 115.899L55.1176 115.867C55.1082 115.856 55.0989 115.846 55.0888 115.836L55.0651 115.814L55.0279 115.782L55.0059 115.766C54.9923 115.755 54.978 115.745 54.9627 115.734L54.9399 115.72C54.9257 115.711 54.911 115.703 54.8959 115.695L54.8646 115.679L54.8265 115.662L54.7775 115.644L54.7538 115.635C54.7296 115.627 54.705 115.621 54.6802 115.616C54.6548 115.611 54.6286 115.607 54.6024 115.603H54.5947H54.5364H54.4763H54.4188H54.4103C54.3841 115.603 54.3587 115.611 54.3333 115.616C54.3082 115.621 54.2833 115.627 54.2589 115.635L54.2352 115.644L54.187 115.662C54.1734 115.667 54.1616 115.673 54.1489 115.679L54.1176 115.695C54.1025 115.703 54.0878 115.711 54.0736 115.72C54.0654 115.724 54.0575 115.729 54.0499 115.734L54.0068 115.766L53.9856 115.782L53.9484 115.814L53.9247 115.836C53.9146 115.846 53.9053 115.856 53.8959 115.867C53.8866 115.878 53.8773 115.888 53.868 115.899C53.8587 115.909 53.8553 115.915 53.8486 115.923C53.8418 115.931 53.8274 115.952 53.8181 115.966C53.8142 115.972 53.8105 115.977 53.8071 115.984C53.7961 116.001 53.7851 116.019 53.775 116.038C53.7739 116.041 53.7725 116.043 53.7707 116.046C53.7377 116.11 53.713 116.178 53.6971 116.249C53.5696 116.869 53.2532 117.434 52.7911 117.869C52.1549 118.496 51.4375 118.805 50.4765 118.809C49.5459 118.809 48.8243 118.496 48.1526 117.863C47.5604 117.268 47.2651 116.635 47.2144 115.856C47.2025 115.637 47.1039 115.433 46.9403 115.287C46.7768 115.141 46.5616 115.065 46.3422 115.077C46.1227 115.089 45.917 115.187 45.7703 115.35C45.6235 115.513 45.5477 115.727 45.5596 115.945C45.6197 117.141 46.1518 118.21 46.9893 119.038C47.4474 119.492 47.9914 119.852 48.5899 120.096C49.1885 120.34 49.8296 120.464 50.4765 120.46H50.5061C51.1488 120.466 51.7861 120.343 52.3801 120.098C52.974 119.854 53.5126 119.494 53.9636 119.038C54.1622 118.843 54.3446 118.632 54.5093 118.407C54.6737 118.632 54.8562 118.843 55.055 119.038C55.5059 119.494 56.0442 119.854 56.6381 120.098C57.2319 120.343 57.8691 120.466 58.5116 120.46H58.5413C59.1881 120.464 59.8293 120.34 60.4278 120.096C61.0263 119.852 61.5703 119.492 62.0284 119.038C62.8676 118.21 63.398 117.141 63.4581 115.945C63.4641 115.836 63.4484 115.727 63.4118 115.625C63.3752 115.522 63.3184 115.428 63.2448 115.347C63.1712 115.266 63.0823 115.201 62.9831 115.155C62.8839 115.109 62.7765 115.083 62.6671 115.078Z" fill="black"/>
<path d="M50.4477 121.091C49.722 121.095 49.0028 120.955 48.3316 120.681C47.6603 120.406 47.0503 120.003 46.5368 119.492C45.5419 118.511 44.9827 117.297 44.9167 115.979C44.905 115.599 45.0431 115.23 45.3017 114.95C45.5603 114.67 45.9188 114.501 46.3004 114.481C46.6821 114.46 47.0568 114.589 47.3442 114.84C47.6317 115.09 47.8092 115.443 47.8387 115.822C47.8802 116.439 48.1111 116.931 48.5883 117.416C49.1483 117.942 49.7295 118.178 50.4706 118.181C51.2404 118.181 51.8005 117.952 52.3318 117.424C52.7067 117.074 52.9625 116.617 53.0635 116.116C53.0913 115.995 53.1339 115.877 53.1904 115.766C53.1904 115.759 53.198 115.752 53.2014 115.745C53.2182 115.713 53.2365 115.682 53.2564 115.651L53.2733 115.625C53.2936 115.594 53.3114 115.569 53.33 115.541C53.3486 115.513 53.3512 115.512 53.3639 115.498C53.3766 115.484 53.396 115.459 53.4129 115.441C53.4298 115.422 53.4442 115.407 53.462 115.389C53.4798 115.372 53.4882 115.364 53.5018 115.352C53.5153 115.341 53.5474 115.311 53.5694 115.293L53.61 115.262C53.6346 115.243 53.66 115.225 53.6862 115.208C53.698 115.199 53.7107 115.192 53.7234 115.184C53.753 115.166 53.7792 115.15 53.808 115.136L53.8562 115.112H53.8647L53.9307 115.081L54.0153 115.05L54.0618 115.034C54.0838 115.028 54.1075 115.021 54.132 115.015H54.1388L54.1701 115.008L54.2352 114.99H54.2674L54.3164 114.983H54.3444C54.3782 114.983 54.412 114.978 54.4467 114.976H54.5508C54.5838 114.976 54.6176 114.976 54.6514 114.983H54.6785L54.7293 114.99H54.7504L54.8934 115.026L54.9391 115.039L54.978 115.052L55.0685 115.087L55.126 115.113H55.1353L55.1895 115.14C55.2149 115.153 55.2411 115.168 55.2665 115.184L55.3105 115.212C55.3342 115.227 55.3604 115.246 55.3858 115.266C55.3968 115.273 55.4094 115.283 55.4213 115.294C55.4331 115.304 55.467 115.331 55.4881 115.352L55.5287 115.389C55.549 115.41 55.566 115.427 55.582 115.445C55.5981 115.463 55.6133 115.48 55.6286 115.499C55.6438 115.517 55.6539 115.53 55.6649 115.545C55.6759 115.56 55.7013 115.593 55.7182 115.619L55.7411 115.655C55.7571 115.68 55.7766 115.713 55.7944 115.747L55.8011 115.761C55.8593 115.873 55.9025 115.992 55.9297 116.115C56.0316 116.616 56.288 117.074 56.6632 117.424C57.1979 117.95 57.7571 118.176 58.5337 118.181C59.2688 118.181 59.8492 117.942 60.4101 117.416C60.8872 116.931 61.1182 116.439 61.1588 115.817C61.1875 115.437 61.365 115.083 61.6531 114.832C61.9411 114.581 62.3168 114.452 62.6994 114.473C63.082 114.494 63.441 114.663 63.6993 114.945C63.9576 115.227 64.0945 115.598 64.0808 115.978C64.0148 117.293 63.4556 118.503 62.4641 119.485C61.9505 119.997 61.3399 120.402 60.6677 120.678C59.9956 120.953 59.2751 121.094 58.548 121.09H58.5007C57.7742 121.095 57.0542 120.955 56.383 120.678C55.7118 120.402 55.1029 119.995 54.5922 119.481L54.4983 119.386C54.4653 119.419 54.4323 119.453 54.3985 119.486C53.8882 119.998 53.28 120.404 52.6097 120.68C51.9394 120.956 51.2204 121.095 50.4951 121.09H50.4461L50.4477 121.091ZM46.387 115.706H46.3752C46.3492 115.706 46.3237 115.712 46.3001 115.723C46.2765 115.733 46.2554 115.749 46.2381 115.768C46.221 115.787 46.2078 115.809 46.1992 115.833C46.1907 115.856 46.1869 115.882 46.1882 115.907C46.2381 116.909 46.6679 117.835 47.431 118.587C47.8277 118.982 48.2992 119.295 48.8181 119.508C49.3371 119.72 49.8932 119.829 50.4545 119.827H50.501C51.06 119.834 51.6145 119.728 52.1312 119.516C52.6479 119.304 53.1158 118.989 53.5068 118.592C53.683 118.419 53.8448 118.232 53.9907 118.033L54.5042 117.332L55.0169 118.033C55.1614 118.23 55.3215 118.415 55.4957 118.587C55.8871 118.986 56.3558 119.301 56.8733 119.514C57.3909 119.727 57.9465 119.833 58.5066 119.827H58.5514C59.1137 119.829 59.6709 119.72 60.1907 119.507C60.7105 119.294 61.1827 118.98 61.5801 118.585C62.3414 117.835 62.7695 116.909 62.8194 115.91C62.8213 115.885 62.818 115.859 62.8095 115.834C62.8011 115.81 62.7878 115.787 62.7704 115.768C62.754 115.749 62.7341 115.734 62.7117 115.724C62.6893 115.713 62.6649 115.707 62.6401 115.706H62.6333C62.6082 115.704 62.583 115.707 62.5592 115.715C62.5354 115.723 62.5135 115.736 62.4947 115.753C62.4759 115.769 62.4607 115.79 62.4499 115.812C62.4391 115.835 62.433 115.859 62.432 115.884V115.893C62.3719 116.828 62.0157 117.593 61.3136 118.303L61.2983 118.318C60.4938 119.075 59.6182 119.433 58.5404 119.438C57.4254 119.433 56.549 119.076 55.7766 118.315C55.2277 117.794 54.8512 117.119 54.6971 116.38C54.6932 116.362 54.6867 116.345 54.6777 116.329C54.6753 116.324 54.6725 116.319 54.6692 116.314L54.6125 116.254L54.5863 116.24H54.5288L54.4949 116.224L54.4526 116.24L54.412 116.245L54.3503 116.297L54.341 116.31L54.3334 116.323V116.329C54.3246 116.344 54.3181 116.361 54.3139 116.378C54.1605 117.117 53.7846 117.792 53.2361 118.314C52.4629 119.071 51.5864 119.432 50.4774 119.437C49.3937 119.432 48.5172 119.076 47.7135 118.317L47.6975 118.302C46.9953 117.592 46.64 116.827 46.5791 115.893V115.883C46.5782 115.858 46.5723 115.834 46.5617 115.811C46.5511 115.789 46.536 115.769 46.5173 115.752C46.4799 115.721 46.4317 115.705 46.3828 115.708L46.387 115.706Z" fill="black"/>
<path d="M77.6064 131.717L79.3271 133.434C77.2738 134.62 75.6044 136.365 74.516 138.464L74.5025 138.489C73.7178 140.119 73.3105 141.904 73.3105 143.712C73.3105 145.519 73.7178 147.304 74.5025 148.934L74.516 148.962C75.1088 150.106 75.8842 151.147 76.812 152.043C79.0564 154.291 81.8964 155.482 85.0739 155.482H85.1323C88.3605 155.495 91.2563 154.313 93.538 152.024C95.8001 149.752 96.9972 146.91 96.9803 143.728C96.9854 140.551 95.8111 137.651 93.5439 135.375L93.4534 135.291C93.0651 134.972 92.6311 134.566 92.1099 134.179L82.3676 124.49C81.6908 123.807 80.7509 123.51 79.9142 123.524C78.751 123.516 77.7375 124.113 77.0717 124.888L76.993 124.978C76.3297 125.873 75.9769 126.957 75.988 128.069C75.988 128.716 76.131 129.239 76.2325 129.64L76.2503 129.702C76.4043 130.206 76.6535 130.675 76.9846 131.086L77.6064 131.717Z" fill="white"/>
<path d="M85.1881 157.165H85.0748C81.4624 157.165 78.1952 155.809 75.626 153.243C74.5722 152.223 73.6912 151.04 73.0169 149.74L72.9865 149.679C72.088 147.818 71.6215 145.779 71.6215 143.714C71.6215 141.65 72.088 139.611 72.9865 137.75L73.0288 137.671C73.7075 136.377 74.581 135.193 75.6192 134.161L75.6327 134.148C75.9824 133.811 76.3402 133.494 76.7063 133.198L76.4009 132.893L75.7165 132.195L75.6589 132.123C75.194 131.543 74.8454 130.88 74.6319 130.17L74.582 129.984C74.4065 129.362 74.3127 128.721 74.3028 128.075C74.2932 126.6 74.763 125.162 75.642 123.974L75.6818 123.92L75.8002 123.787C76.8687 122.549 78.3593 121.841 79.8973 121.841H79.9819C80.6485 121.838 81.3091 121.965 81.9259 122.217C82.5426 122.468 83.1033 122.838 83.5757 123.306L93.2309 132.907C93.582 133.174 93.8857 133.437 94.1564 133.67C94.2934 133.788 94.422 133.899 94.5379 133.994L94.6225 134.065L94.7562 134.191C97.3305 136.774 98.6883 140.07 98.6833 143.725C98.701 147.327 97.3415 150.607 94.752 153.209C92.159 155.797 88.8572 157.165 85.1881 157.165ZM76.0227 148.199C76.5297 149.175 77.1919 150.064 77.9837 150.831L78.0108 150.857C79.9329 152.781 82.3744 153.802 85.0722 153.802H85.178C87.9333 153.802 90.4045 152.78 92.335 150.843C94.3078 148.86 95.301 146.467 95.2866 143.74V143.728C95.2917 140.989 94.2799 138.52 92.3612 136.585L92.3325 136.558C92.1988 136.447 92.0677 136.334 91.9298 136.215C91.665 135.986 91.3909 135.75 91.0956 135.53L90.9983 135.458L81.1587 125.674C80.8118 125.323 80.3034 125.202 79.9422 125.21H79.8914C79.3483 125.21 78.7764 125.5 78.3576 125.986L78.3153 126.034C77.8953 126.626 77.673 127.335 77.68 128.06V128.071C77.6911 128.44 77.75 128.806 77.8551 129.16L77.878 129.244C77.9628 129.512 78.0943 129.762 78.2663 129.984L78.8086 130.536L82.0791 133.799L80.1706 134.893C78.3966 135.92 76.9545 137.429 76.0143 139.244L76.005 139.261C75.3419 140.658 74.9996 142.185 75.0026 143.73C75.0057 145.274 75.3541 146.799 76.0227 148.194V148.199Z" fill="black"/>
<path d="M83.7211 139.489C83.4989 139.49 83.2788 139.446 83.0735 139.362C82.8681 139.277 82.6817 139.153 82.5249 138.996L78.1258 134.621C77.9686 134.464 77.844 134.279 77.7589 134.075C77.6738 133.87 77.63 133.652 77.63 133.431C77.63 133.21 77.6737 132.991 77.7587 132.787C77.8437 132.582 77.9683 132.397 78.1254 132.24C78.2825 132.084 78.469 131.96 78.6742 131.876C78.8795 131.791 79.0995 131.747 79.3217 131.747C79.5439 131.747 79.7639 131.791 79.9692 131.875C80.1745 131.96 80.3611 132.084 80.5182 132.24L84.9174 136.616C85.1539 136.851 85.315 137.151 85.3803 137.477C85.4455 137.804 85.412 138.142 85.284 138.45C85.1559 138.757 84.9391 139.02 84.6609 139.205C84.3828 139.39 84.0557 139.488 83.7211 139.489V139.489Z" fill="black"/>
<path d="M78.8914 144.296C78.6692 144.296 78.4491 144.253 78.2437 144.168C78.0384 144.084 77.852 143.96 77.6952 143.803L73.2961 139.427C72.9787 139.111 72.8004 138.683 72.8004 138.237C72.8004 137.79 72.9787 137.362 73.2961 137.047C73.6135 136.731 74.0439 136.554 74.4927 136.554C74.9416 136.554 75.372 136.731 75.6894 137.047L80.0885 141.422C80.3251 141.658 80.4861 141.958 80.5514 142.284C80.6166 142.61 80.5831 142.949 80.4551 143.256C80.3271 143.564 80.1103 143.826 79.8321 144.011C79.5539 144.196 79.2269 144.295 78.8923 144.295L78.8914 144.296Z" fill="black"/>
<path d="M31.3936 131.717L29.672 133.434C31.7253 134.62 33.3947 136.365 34.4831 138.464L34.4975 138.489C35.2817 140.119 35.6887 141.904 35.6887 143.712C35.6887 145.519 35.2817 147.304 34.4975 148.934L34.4831 148.962C33.8904 150.106 33.115 151.147 32.1871 152.043C29.9427 154.291 27.1027 155.482 23.9261 155.482H23.8669C20.6386 155.495 17.7428 154.313 15.4612 152.024C13.199 149.752 12.0019 146.91 12.0189 143.728C12.0138 140.551 13.188 137.651 15.4552 135.375L15.5458 135.291C15.9349 134.972 16.3681 134.566 16.8892 134.179L26.6324 124.49C27.3092 123.807 28.2499 123.51 29.0857 123.524C30.249 123.516 31.2633 124.113 31.9282 124.888L32.0069 124.978C32.6706 125.872 33.0237 126.957 33.0128 128.069C33.0128 128.716 32.869 129.239 32.7675 129.64L32.7505 129.702C32.5963 130.206 32.3467 130.675 32.0154 131.086L31.3936 131.717Z" fill="white"/>
<path d="M23.8043 157.165C20.1412 157.165 16.8402 155.798 14.2599 153.21C11.6687 150.607 10.3092 147.327 10.327 143.725C10.3227 140.07 11.6805 136.774 14.254 134.191L14.2972 134.149L14.4664 133.994C14.5823 133.899 14.7108 133.788 14.8479 133.67C15.1186 133.437 15.4223 133.174 15.7734 132.907L25.4329 123.304C25.9135 122.83 26.4851 122.455 27.1137 122.204C27.7423 121.953 28.4152 121.829 29.0926 121.841H29.1078C30.6458 121.841 32.1364 122.549 33.2058 123.787L33.3233 123.92L33.364 123.974C34.2429 125.162 34.7126 126.6 34.7031 128.075C34.6933 128.72 34.5995 129.362 34.424 129.983L34.3741 130.17C34.1603 130.881 33.8113 131.544 33.3462 132.123L33.2887 132.195L32.5924 132.905L32.2989 133.198C32.6649 133.493 33.0227 133.809 33.3724 134.148L33.386 134.161C34.4244 135.193 35.2982 136.377 35.9772 137.672L36.0187 137.75C36.9161 139.611 37.382 141.648 37.382 143.712C37.382 145.775 36.9161 147.812 36.0187 149.673L35.9848 149.74C35.3109 151.04 34.4301 152.223 33.3766 153.243C30.8065 155.809 27.5393 157.165 23.9278 157.165H23.806H23.8043ZM16.6346 136.581C14.7159 138.517 13.705 140.986 13.7092 143.725V143.736C13.6948 146.467 14.688 148.857 16.6617 150.84C18.5914 152.776 21.0608 153.799 23.8111 153.799H23.9245C26.6215 153.799 29.0638 152.781 30.9859 150.854L31.013 150.828C31.8043 150.061 32.4662 149.172 32.9731 148.196L32.9782 148.187C33.6455 146.792 33.9929 145.267 33.9951 143.723C33.9973 142.178 33.6543 140.652 32.9909 139.255L32.9816 139.239C32.042 137.424 30.5997 135.914 28.8252 134.888L26.9167 133.794L30.1873 130.531L30.7296 129.979C30.9018 129.757 31.0335 129.507 31.1187 129.239L31.1407 129.155C31.2461 128.802 31.3053 128.436 31.3167 128.067V128.055C31.3229 127.331 31.1004 126.622 30.6805 126.03L30.6382 125.982C30.2203 125.496 29.6475 125.206 29.1053 125.206H29.0537C28.6933 125.198 28.1848 125.319 27.8371 125.67L27.827 125.68L17.9992 135.455L17.9019 135.528C17.6075 135.747 17.3326 135.983 17.0678 136.212C16.9299 136.331 16.7987 136.444 16.6659 136.554L16.6346 136.581Z" fill="black"/>
<path d="M25.2755 139.489C24.9409 139.489 24.6138 139.391 24.3357 139.206C24.0575 139.021 23.8407 138.758 23.7126 138.45C23.5846 138.143 23.5511 137.805 23.6164 137.478C23.6816 137.152 23.8427 136.852 24.0793 136.617L28.4784 132.241C28.6355 132.085 28.8221 131.961 29.0274 131.876C29.2327 131.792 29.4527 131.748 29.6749 131.748C29.8971 131.748 30.1171 131.792 30.3224 131.876C30.5276 131.961 30.7141 132.085 30.8712 132.241C31.0283 132.398 31.1529 132.583 31.2379 132.787C31.3229 132.992 31.3666 133.21 31.3666 133.431C31.3666 133.652 31.3228 133.871 31.2377 134.076C31.1526 134.28 31.028 134.465 30.8708 134.621L26.4717 138.997C26.3148 139.154 26.1284 139.278 25.9231 139.362C25.7177 139.447 25.4977 139.49 25.2755 139.489Z" fill="black"/>
<path d="M30.0232 144.212C29.6886 144.212 29.3615 144.113 29.0833 143.928C28.8052 143.743 28.5884 143.48 28.4603 143.173C28.3323 142.865 28.2988 142.527 28.364 142.201C28.4293 141.874 28.5904 141.574 28.8269 141.339L33.226 136.963C33.5434 136.648 33.9739 136.47 34.4227 136.47C34.8715 136.47 35.302 136.648 35.6193 136.963C35.9367 137.279 36.115 137.707 36.115 138.154C36.115 138.6 35.9367 139.028 35.6193 139.344L31.2202 143.72C31.0633 143.876 30.8766 144 30.6712 144.085C30.4657 144.169 30.2455 144.212 30.0232 144.212Z" fill="black"/>
<path d="M54.5626 164C64.0164 164 71.6802 162.093 71.6802 159.741C71.6802 157.389 64.0164 155.483 54.5626 155.483C45.1088 155.483 37.4449 157.389 37.4449 159.741C37.4449 162.093 45.1088 164 54.5626 164Z" fill="black"/>
</g>
<defs>
<linearGradient id="paint0_linear_11_89" x1="104.182" y1="26.3635" x2="107.394" y2="26.3635" gradientUnits="userSpaceOnUse">
<stop stop-color="#EC1C24"/>
<stop offset="1" stop-color="#FF2900"/>
</linearGradient>
<linearGradient id="paint1_linear_11_89" x1="2.99149" y1="14.4989" x2="109.002" y2="14.4989" gradientUnits="userSpaceOnUse">
<stop stop-color="#EC1C24"/>
<stop offset="1" stop-color="#FF2900"/>
</linearGradient>
<clipPath id="clip0_11_89">
<rect width="109" height="112" fill="white" transform="translate(0 52)"/>
</clipPath>
</defs>
</svg>
